<svg width="40" height="40" viewBox="0 0 40 40" fill="none" xmlns="http://www.w3.org/2000/svg">
<path d="M13.889 36.6667C16.9556 36.6667 19.4445 34.1778 19.4445 31.1112V25.5557H13.889C10.8223 25.5557 8.33337 28.0445 8.33337 31.1112C8.33337 34.1778 10.8223 36.6667 13.889 36.6667Z" fill="#0ACF83"/>
<path d="M8.33337 20.0004C8.33337 16.9337 10.8223 14.4448 13.889 14.4448H19.4445V25.5559H13.889C10.8223 25.5559 8.33337 23.067 8.33337 20.0004Z" fill="#A259FF"/>
<path d="M8.33337 8.88906C8.33337 5.82239 10.8223 3.3335 13.889 3.3335H19.4445V14.4446H13.889C10.8223 14.4446 8.33337 11.9557 8.33337 8.88906Z" fill="#F24E1E"/>
<path d="M19.4443 3.3335H24.9999C28.0666 3.3335 30.5556 5.82239 30.5556 8.88906C30.5556 11.9557 28.0666 14.4446 24.9999 14.4446H19.4443V3.3335Z" fill="#FF7262"/>
<path d="M30.5556 20.0004C30.5556 23.067 28.0666 25.5559 24.9999 25.5559C21.9332 25.5559 19.4443 23.067 19.4443 20.0004C19.4443 16.9337 21.9332 14.4448 24.9999 14.4448C28.0666 14.4448 30.5556 16.9337 30.5556 20.0004Z" fill="#1ABCFE"/>
</svg>
