<svg width="40" height="40" viewBox="0 0 40 40" fill="none" xmlns="http://www.w3.org/2000/svg">
<g clip-path="url(#clip0_193_90)">
<path d="M8.375 2H31.625C32.4624 1.99922 33.2917 2.1631 34.0655 2.48229C34.8393 2.80147 35.5424 3.26968 36.1346 3.86012C36.7267 4.45057 37.1962 5.15165 37.5163 5.92325C37.8364 6.69485 38.0008 7.52183 38 8.35684V30.6432C38.0008 31.4782 37.8364 32.3051 37.5163 33.0767C37.1962 33.8483 36.7267 34.5494 36.1346 35.1399C35.5424 35.7303 34.8393 36.1985 34.0655 36.5177C33.2917 36.8369 32.4624 37.0008 31.625 37H8.375C7.5376 37.0008 6.70827 36.8369 5.93446 36.5177C5.16066 36.1985 4.45757 35.7303 3.86544 35.1399C3.27331 34.5494 2.80376 33.8483 2.48366 33.0767C2.16357 32.3051 1.99921 31.4782 2 30.6432V8.35684C1.99921 7.52183 2.16357 6.69485 2.48366 5.92325C2.80376 5.15165 3.27331 4.45057 3.86544 3.86012C4.45757 3.26968 5.16066 2.80147 5.93446 2.48229C6.70827 2.1631 7.5376 1.99922 8.375 2V2Z" fill="#330000"/>
<path d="M19.445 23.0001H13.865L12.725 26.515C12.7123 26.5791 12.676 26.6361 12.6233 26.6748C12.5705 26.7136 12.5052 26.7313 12.44 26.7244H9.62003C9.45503 26.7244 9.41003 26.6347 9.45503 26.4552L14.285 12.5898C14.33 12.4402 14.375 12.2757 14.435 12.0962C14.4954 11.7757 14.5255 11.4502 14.525 11.124C14.5205 11.0865 14.5304 11.0488 14.5527 11.0183C14.5749 10.9877 14.6079 10.9668 14.645 10.9595H18.53C18.65 10.9595 18.71 11.0043 18.725 11.0791L24.2 26.4851C24.245 26.6496 24.2 26.7244 24.05 26.7244H20.915C20.862 26.7295 20.8089 26.7158 20.765 26.6857C20.7211 26.6556 20.6892 26.6111 20.675 26.5599L19.445 23.0001ZM14.735 19.9637H18.545C18.455 19.6496 18.335 19.2757 18.2 18.8868C18.065 18.4979 17.93 18.0492 17.795 17.6005C17.66 17.1518 17.51 16.6881 17.36 16.2244C17.21 15.7608 17.075 15.327 16.955 14.8932C16.835 14.4595 16.73 14.0855 16.625 13.7266H16.595C16.4602 14.3785 16.29 15.0226 16.085 15.6561C15.86 16.374 15.635 17.1219 15.395 17.8697C15.185 18.6325 14.96 19.3355 14.735 19.9637V19.9637Z" fill="#FF9A00"/>
<path d="M27.47 13.517C27.2238 13.5224 26.979 13.4789 26.7498 13.389C26.5206 13.2991 26.3116 13.1647 26.135 12.9935C25.7914 12.6188 25.6083 12.125 25.625 11.6175C25.6162 11.3702 25.6597 11.1238 25.7527 10.8945C25.8458 10.6651 25.9863 10.4578 26.165 10.2863C26.5256 9.94645 27.0039 9.75887 27.5 9.76275C28.085 9.76275 28.535 9.94224 28.865 10.2863C29.1973 10.6489 29.3749 11.1264 29.36 11.6175C29.3692 11.8702 29.3274 12.1221 29.2373 12.3585C29.1471 12.5948 29.0103 12.8108 28.835 12.9935C28.6583 13.173 28.445 13.3127 28.2095 13.403C27.974 13.4933 27.7219 13.5322 27.47 13.517V13.517ZM25.79 26.4999V14.9828C25.79 14.8333 25.85 14.7734 25.985 14.7734H28.955C29.09 14.7734 29.15 14.8482 29.15 14.9828V26.4999C29.15 26.6645 29.09 26.7392 28.955 26.7392H26.015C25.9835 26.7418 25.9518 26.7373 25.9223 26.726C25.8928 26.7146 25.8662 26.6968 25.8446 26.6738C25.8229 26.6508 25.8068 26.6232 25.7973 26.5931C25.7879 26.563 25.7854 26.5311 25.79 26.4999V26.4999Z" fill="#FF9A00"/>
</g>
<defs>
<clipPath id="clip0_193_90">
<rect width="36" height="35" fill="white" transform="translate(2 2)"/>
</clipPath>
</defs>
</svg>
