<svg width="40" height="40" viewBox="0 0 40 40" fill="none" xmlns="http://www.w3.org/2000/svg">
<g clip-path="url(#clip0_193_92)">
<path d="M8.375 2H31.625C32.4624 1.99921 33.2917 2.16357 34.0655 2.48366C34.8393 2.80376 35.5424 3.27331 36.1346 3.86544C36.7267 4.45757 37.1962 5.16066 37.5163 5.93446C37.8364 6.70827 38.0008 7.5376 38 8.375V30.725C38.0008 31.5624 37.8364 32.3917 37.5163 33.1655C37.1962 33.9393 36.7267 34.6424 36.1346 35.2346C35.5424 35.8267 34.8393 36.2962 34.0655 36.6163C33.2917 36.9364 32.4624 37.1008 31.625 37.1H8.375C7.5376 37.1008 6.70827 36.9364 5.93446 36.6163C5.16066 36.2962 4.45757 35.8267 3.86544 35.2346C3.27331 34.6424 2.80376 33.9393 2.48366 33.1655C2.16357 32.3917 1.99921 31.5624 2 30.725V8.375C1.99921 7.5376 2.16357 6.70827 2.48366 5.93446C2.80376 5.16066 3.27331 4.45757 3.86544 3.86544C4.45757 3.27331 5.16066 2.80376 5.93446 2.48366C6.70827 2.16357 7.5376 1.99921 8.375 2V2Z" fill="#49021F"/>
<path d="M15.0801 11.18V26.57C15.0801 26.735 15.0051 26.81 14.8701 26.81H11.9301C11.7951 26.81 11.7351 26.735 11.7351 26.57V11.18C11.7351 11.045 11.8101 10.985 11.9451 10.985H14.8701C14.8928 10.9814 14.9161 10.9825 14.9384 10.9882C14.9607 10.9939 14.9816 11.004 14.9999 11.0181C15.0181 11.0321 15.0333 11.0497 15.0445 11.0698C15.0557 11.0899 15.0627 11.1121 15.0651 11.135C15.0708 11.1409 15.0751 11.148 15.0777 11.1558C15.0803 11.1636 15.0811 11.1718 15.0801 11.18V11.18Z" fill="#FF3366"/>
<path d="M23.7201 27.0501C22.6082 27.0683 21.5064 26.8377 20.4951 26.3751C19.5543 25.9351 18.7658 25.2249 18.2301 24.3351C17.6751 23.4201 17.4051 22.2801 17.4051 20.9151C17.3899 19.805 17.675 18.7115 18.2301 17.7501C18.7994 16.773 19.6238 15.9692 20.6151 15.4251C21.6651 14.8401 22.9251 14.5551 24.4101 14.5551C24.5153 14.5539 24.6205 14.5589 24.7251 14.5701C24.8601 14.5851 25.0101 14.5851 25.1901 14.6001V9.86007C25.1901 9.75507 25.2351 9.69507 25.3401 9.69507H28.3851C28.4187 9.69052 28.4528 9.6988 28.4806 9.71825C28.5084 9.73771 28.5279 9.76692 28.5351 9.80007V24.1101C28.5351 24.3801 28.5501 24.6801 28.5651 25.0101C28.5801 25.3401 28.6101 25.6251 28.6251 25.8801C28.6283 25.9307 28.6156 25.9811 28.5887 26.0242C28.5618 26.0672 28.5221 26.1007 28.4751 26.1201C27.6894 26.4503 26.8694 26.6918 26.0301 26.8401C25.2678 26.9782 24.4948 27.0485 23.7201 27.0501ZM25.1901 24.0501V17.4501C25.0566 17.4178 24.9214 17.3928 24.7851 17.3751C24.6201 17.3601 24.4551 17.3451 24.2901 17.3451C23.7021 17.3384 23.1211 17.4721 22.5951 17.7351C22.0825 17.9905 21.6437 18.3725 21.3201 18.8451C20.9901 19.3251 20.8251 19.9701 20.8251 20.7501C20.812 21.2765 20.8986 21.8007 21.0801 22.2951C21.2252 22.6948 21.4555 23.0582 21.7551 23.3601C22.0443 23.636 22.3934 23.8414 22.7751 23.9601C23.1769 24.0917 23.5973 24.1575 24.0201 24.1551C24.2451 24.1551 24.4551 24.1401 24.6501 24.1251C24.8334 24.1392 25.0176 24.1136 25.1901 24.0501V24.0501Z" fill="#FF3366"/>
</g>
<defs>
<clipPath id="clip0_193_92">
<rect width="36" height="35.1" fill="white" transform="translate(2 2)"/>
</clipPath>
</defs>
</svg>
