<svg width="40" height="40" viewBox="0 0 40 40" fill="none" xmlns="http://www.w3.org/2000/svg">
<path fill-rule="evenodd" clip-rule="evenodd" d="M25.0849 2.0821L5.16589 3.55233C3.55973 3.69175 3 4.742 3 6.00109V27.838C3 28.8191 3.3489 29.6576 4.18793 30.7784L8.87034 36.8676C9.63946 37.8481 10.3384 38.0578 11.8071 37.9876L34.9389 36.5876C36.8953 36.4483 37.4549 35.5377 37.4549 33.9981V9.43095C37.4549 8.63506 37.1407 8.40515 36.2145 7.72741C36.1636 7.69012 36.1108 7.65148 36.056 7.61131L29.6977 3.13206C28.1603 2.01267 27.5309 1.87182 25.0849 2.0821ZM12.3316 9.02797C10.4431 9.15579 10.0139 9.18483 8.94143 8.31155L6.2141 6.14191C5.93593 5.86134 6.07544 5.51137 6.77382 5.44195L25.9237 4.042C27.5307 3.90172 28.3692 4.46256 28.9985 4.95226L32.283 7.33216C32.4228 7.40186 32.7717 7.82128 32.3522 7.82128L12.5754 9.01154L12.3316 9.02797ZM10.1289 33.7877V12.9311C10.1289 12.0214 10.4085 11.6012 11.2466 11.5306L33.9596 10.2012C34.7299 10.1312 35.0788 10.6215 35.0788 11.5306V32.2471C35.0788 33.1577 34.9387 33.9287 33.6802 33.998L11.9456 35.2585C10.6877 35.3279 10.1289 34.9086 10.1289 33.7877ZM31.5845 14.0499C31.7239 14.6804 31.5845 15.3104 30.9543 15.3812L29.907 15.5904V30.9881C28.9978 31.4779 28.1594 31.7579 27.4607 31.7579C26.3421 31.7579 26.062 31.4076 25.2241 30.3584L18.3741 19.5799V30.0084L20.5416 30.4987C20.5416 30.4987 20.5416 31.7579 18.7929 31.7579L13.9718 32.0382C13.8317 31.7579 13.9718 31.0586 14.4608 30.9184L15.7189 30.569V16.7806L13.9721 16.6403C13.832 16.0098 14.1809 15.1007 15.16 15.0301L20.332 14.6807L27.4607 25.5994V15.9404L25.6432 15.7313C25.5036 14.9604 26.062 14.4007 26.7609 14.3313L31.5845 14.0499Z" fill="black"/>
</svg>
