<svg width="40" height="40" viewBox="0 0 40 40" fill="none" xmlns="http://www.w3.org/2000/svg">
<g clip-path="url(#clip0_193_91)">
<path d="M8.375 2H31.625C32.4624 1.99921 33.2917 2.16357 34.0655 2.48366C34.8393 2.80376 35.5424 3.27331 36.1346 3.86544C36.7267 4.45757 37.1962 5.16066 37.5163 5.93446C37.8364 6.70827 38.0008 7.5376 38 8.375V30.725C38.0008 31.5624 37.8364 32.3917 37.5163 33.1655C37.1962 33.9393 36.7267 34.6424 36.1346 35.2346C35.5424 35.8267 34.8393 36.2962 34.0655 36.6163C33.2917 36.9364 32.4624 37.1008 31.625 37.1H8.375C7.5376 37.1008 6.70827 36.9364 5.93446 36.6163C5.16066 36.2962 4.45757 35.8267 3.86544 35.2346C3.27331 34.6424 2.80376 33.9393 2.48366 33.1655C2.16357 32.3917 1.99921 31.5624 2 30.725V8.375C1.99921 7.5376 2.16357 6.70827 2.48366 5.93446C2.80376 5.16066 3.27331 4.45757 3.86544 3.86544C4.45757 3.27331 5.16066 2.80376 5.93446 2.48366C6.70827 2.16357 7.5376 1.99921 8.375 2V2Z" fill="#001E36"/>
<path d="M10.1 26.6148V11.1798C10.1 11.0748 10.145 11.0148 10.25 11.0148C10.505 11.0148 10.745 11.0148 11.09 10.9998C11.435 10.9848 11.825 10.9848 12.23 10.9698C12.635 10.9548 13.07 10.9548 13.535 10.9398C14 10.9248 14.45 10.9248 14.9 10.9248C16.13 10.9248 17.15 11.0748 17.99 11.3898C18.743 11.6455 19.4296 12.0657 20 12.6198C20.4833 13.1047 20.8568 13.6879 21.095 14.3298C21.322 14.9549 21.4388 15.6147 21.44 16.2798C21.44 17.5698 21.14 18.6348 20.54 19.4748C19.9372 20.3137 19.0956 20.9514 18.125 21.3048C17.105 21.6798 15.98 21.8148 14.75 21.8148C14.39 21.8148 14.15 21.8148 14 21.7998C13.85 21.7848 13.64 21.7848 13.355 21.7848V26.5998C13.3583 26.6245 13.3567 26.6496 13.3501 26.6736C13.3436 26.6977 13.3323 26.7201 13.3169 26.7397C13.3015 26.7593 13.2824 26.7756 13.2606 26.7876C13.2388 26.7997 13.2147 26.8072 13.19 26.8098H10.28C10.16 26.8098 10.1 26.7498 10.1 26.6148ZM13.37 13.9098V18.9498C13.58 18.9648 13.775 18.9798 13.955 18.9798H14.75C15.3356 18.9805 15.9176 18.8894 16.475 18.7098C16.9532 18.5692 17.3804 18.2931 17.705 17.9148C18.02 17.5398 18.17 17.0298 18.17 16.3698C18.1841 15.9011 18.0644 15.438 17.825 15.0348C17.5749 14.6453 17.207 14.3458 16.775 14.1798C16.2119 13.9593 15.6093 13.8571 15.005 13.8798C14.615 13.8798 14.27 13.8798 13.985 13.8948C13.7799 13.8814 13.5741 13.8864 13.37 13.9098V13.9098Z" fill="#31A8FF"/>
<path d="M30.8 18.035C30.3471 17.7965 29.8621 17.6247 29.36 17.525C28.8086 17.4001 28.2454 17.3348 27.68 17.33C27.3765 17.3196 27.073 17.3549 26.78 17.435C26.5932 17.4739 26.4275 17.5808 26.315 17.735C26.2392 17.8567 26.1978 17.9967 26.195 18.14C26.202 18.2827 26.2546 18.4194 26.345 18.53C26.4872 18.6968 26.6604 18.8343 26.855 18.935C27.2 19.115 27.56 19.28 27.92 19.43C28.7304 19.7028 29.5058 20.0704 30.23 20.525C30.7226 20.8348 31.13 21.2627 31.415 21.77C31.6561 22.2485 31.7746 22.7794 31.76 23.315C31.7722 24.024 31.5681 24.7199 31.175 25.31C30.7566 25.9088 30.1728 26.3727 29.495 26.645C28.76 26.96 27.86 27.125 26.78 27.125C26.0952 27.1278 25.4119 27.0625 24.74 26.93C24.211 26.8386 23.6965 26.6772 23.21 26.45C23.1577 26.4238 23.1142 26.3828 23.0849 26.3322C23.0556 26.2815 23.0417 26.2234 23.045 26.165V23.555C23.0437 23.5294 23.0485 23.5038 23.0589 23.4804C23.0693 23.4569 23.0851 23.4362 23.105 23.42C23.1262 23.4077 23.1507 23.4025 23.175 23.4052C23.1993 23.4079 23.2221 23.4184 23.24 23.435C23.8178 23.7757 24.4454 24.0237 25.1 24.17C25.678 24.3204 26.2728 24.396 26.87 24.395C27.44 24.395 27.845 24.32 28.115 24.185C28.2355 24.1294 28.3375 24.0406 28.4093 23.929C28.481 23.8174 28.5194 23.6877 28.52 23.555C28.52 23.345 28.4 23.15 28.16 22.955C27.92 22.76 27.425 22.535 26.69 22.25C25.936 21.9843 25.22 21.6213 24.56 21.17C24.09 20.835 23.7006 20.3995 23.42 19.895C23.1806 19.4213 23.0621 18.8957 23.075 18.365C23.0772 17.725 23.2535 17.0976 23.585 16.55C23.9661 15.9479 24.513 15.4686 25.16 15.17C25.865 14.81 26.75 14.645 27.815 14.645C28.4375 14.6452 29.0591 14.6903 29.675 14.78C30.1179 14.8399 30.5514 14.9559 30.965 15.125C31.0309 15.1484 31.0849 15.1969 31.115 15.26C31.1323 15.3186 31.1424 15.379 31.145 15.44V17.885C31.1453 17.9142 31.1386 17.943 31.1256 17.969C31.1125 17.9951 31.0935 18.0177 31.07 18.035C30.9828 18.0664 30.8873 18.0664 30.8 18.035Z" fill="#31A8FF"/>
</g>
<defs>
<clipPath id="clip0_193_91">
<rect width="36" height="35.1" fill="white" transform="translate(2 2)"/>
</clipPath>
</defs>
</svg>
