<svg width="40" height="40" viewBox="0 0 40 40" fill="none" xmlns="http://www.w3.org/2000/svg">
<g clip-path="url(#clip0_193_104)">
<path d="M8.375 2H31.625C32.4624 1.99921 33.2917 2.16357 34.0655 2.48366C34.8393 2.80376 35.5424 3.27331 36.1346 3.86544C36.7267 4.45757 37.1962 5.16066 37.5163 5.93446C37.8364 6.70827 38.0008 7.5376 38 8.375V30.725C38.0008 31.5624 37.8364 32.3917 37.5163 33.1655C37.1962 33.9393 36.7267 34.6424 36.1346 35.2346C35.5424 35.8267 34.8393 36.2962 34.0655 36.6163C33.2917 36.9364 32.4624 37.1008 31.625 37.1H8.375C7.5376 37.1008 6.70827 36.9364 5.93446 36.6163C5.16066 36.2962 4.45757 35.8267 3.86544 35.2346C3.27331 34.6424 2.80376 33.9393 2.48366 33.1655C2.16357 32.3917 1.99921 31.5624 2 30.725V8.375C1.99921 7.5376 2.16357 6.70827 2.48366 5.93446C2.80376 5.16066 3.27331 4.45757 3.86544 3.86544C4.45757 3.27331 5.16066 2.80376 5.93446 2.48366C6.70827 2.16357 7.5376 1.99921 8.375 2V2Z" fill="#00005B"/>
<path d="M10.55 26.6148V11.1798C10.55 11.0748 10.595 11.0148 10.7 11.0148C10.955 11.0148 11.195 11.0148 11.54 10.9998C11.885 10.9848 12.275 10.9848 12.68 10.9698C13.085 10.9548 13.52 10.9548 13.985 10.9398C14.45 10.9248 14.9 10.9248 15.35 10.9248C16.58 10.9248 17.6 11.0748 18.44 11.3898C19.193 11.6455 19.8797 12.0657 20.45 12.6198C20.9334 13.1047 21.3068 13.6879 21.545 14.3298C21.7721 14.9549 21.8888 15.6147 21.8901 16.2798C21.8901 17.5698 21.59 18.6348 20.99 19.4748C20.3873 20.3137 19.5457 20.9514 18.575 21.3048C17.555 21.6798 16.43 21.8148 15.2 21.8148C14.84 21.8148 14.6 21.8148 14.45 21.7998C14.3 21.7848 14.09 21.7848 13.805 21.7848V26.5998C13.8084 26.6245 13.8068 26.6496 13.8002 26.6736C13.7937 26.6977 13.7824 26.7201 13.767 26.7397C13.7516 26.7593 13.7324 26.7756 13.7106 26.7876C13.6888 26.7997 13.6648 26.8072 13.64 26.8098H10.73C10.61 26.8098 10.55 26.7498 10.55 26.6148ZM13.82 13.9098V18.9498C14.03 18.9648 14.225 18.9798 14.405 18.9798H15.2C15.7856 18.9805 16.3677 18.8894 16.925 18.7098C17.4032 18.5692 17.8304 18.2931 18.155 17.9148C18.47 17.5398 18.62 17.0298 18.62 16.3698C18.6342 15.9011 18.5145 15.438 18.275 15.0348C18.0249 14.6453 17.6571 14.3458 17.225 14.1798C16.6619 13.9593 16.0594 13.8571 15.455 13.8798C15.065 13.8798 14.72 13.8798 14.435 13.8948C14.23 13.8814 14.0242 13.8864 13.82 13.9098V13.9098Z" fill="#9999FF"/>
<path d="M23.99 14.7796H26.615C26.6861 14.7814 26.7549 14.8055 26.8114 14.8486C26.868 14.8917 26.9095 14.9515 26.93 15.0196C26.9758 15.1403 27.006 15.2663 27.02 15.3946C27.05 15.5446 27.08 15.7096 27.095 15.8596C27.11 16.0096 27.125 16.2046 27.125 16.3996C27.5754 15.8738 28.1197 15.4364 28.73 15.1096C29.4273 14.7223 30.2124 14.5209 31.01 14.5246C31.0347 14.5213 31.0598 14.5229 31.0838 14.5295C31.1079 14.536 31.1304 14.5473 31.1499 14.5627C31.1695 14.5781 31.1858 14.5972 31.1979 14.6191C31.2099 14.6409 31.2174 14.6649 31.22 14.6896V17.6746C31.22 17.7946 31.145 17.8396 30.98 17.8396C30.4359 17.8218 29.8916 17.8722 29.36 17.9896C28.9267 18.0791 28.5043 18.2149 28.1 18.3946C27.8098 18.5255 27.5495 18.7144 27.335 18.9496V26.5996C27.335 26.7496 27.275 26.8096 27.14 26.8096H24.185C24.1573 26.8143 24.129 26.8133 24.1018 26.8067C24.0745 26.8 24.0489 26.788 24.0264 26.7711C24.004 26.7543 23.9852 26.7331 23.9712 26.7087C23.9572 26.6844 23.9483 26.6575 23.945 26.6296V18.2596C23.945 17.8996 23.945 17.5246 23.93 17.1346C23.915 16.7446 23.915 16.3546 23.9 15.9646C23.9 15.6196 23.87 15.2896 23.84 14.9446C23.836 14.9269 23.8356 14.9086 23.8387 14.8907C23.8419 14.8728 23.8485 14.8557 23.8582 14.8403C23.868 14.825 23.8807 14.8117 23.8956 14.8013C23.9105 14.7909 23.9273 14.7835 23.945 14.7796C23.945 14.7646 23.975 14.7646 23.99 14.7796V14.7796Z" fill="#9999FF"/>
</g>
<defs>
<clipPath id="clip0_193_104">
<rect width="36" height="35.1" fill="white" transform="translate(2 2)"/>
</clipPath>
</defs>
</svg>
