<svg width="40" height="40" viewBox="0 0 40 40" fill="none" xmlns="http://www.w3.org/2000/svg">
<path d="M15.5553 3.3335C13.7144 3.3335 12.2222 4.82606 12.2222 6.66671C12.2218 7.104 12.3077 7.5371 12.4749 7.94126C12.6422 8.34543 12.8876 8.71276 13.1971 9.02228C13.5066 9.3318 13.8742 9.57745 14.2788 9.7452C14.6834 9.91295 15.1172 9.9995 15.5553 9.99995H18.889V6.66671C18.8897 5.78353 18.5389 4.93621 17.9137 4.31113C17.2885 3.68605 16.4403 3.33438 15.5553 3.3335ZM15.5553 12.2221H6.66649C4.82554 12.2221 3.33337 13.7147 3.33337 15.5559C3.33337 17.3965 4.82554 18.8892 6.66649 18.8892H15.5559C17.3962 18.8892 18.889 17.3965 18.889 15.5559C18.889 13.7147 17.3962 12.2221 15.5553 12.2221Z" fill="#36C5F0"/>
<path d="M36.6666 15.5559C36.6666 13.7147 35.174 12.2221 33.333 12.2221C31.492 12.2221 29.9998 13.7147 29.9998 15.5559V18.8892H33.333C34.218 18.8882 35.0663 18.5365 35.6915 17.9115C36.3166 17.2863 36.6673 16.4391 36.6666 15.5559ZM27.7778 15.5559V6.66671C27.7785 5.78353 27.4278 4.93621 26.8026 4.31113C26.1775 3.68605 25.3291 3.33438 24.4441 3.3335C22.6031 3.3335 21.111 4.82606 21.111 6.66671V15.5553C21.111 17.397 22.6031 18.8897 24.4441 18.8897C25.3291 18.8888 26.1775 18.5372 26.8026 17.912C27.4278 17.287 27.7785 16.4396 27.7778 15.5564" fill="#2EB67D"/>
<path d="M24.4441 36.6665C25.3291 36.6657 26.1775 36.314 26.8026 35.6888C27.4278 35.0638 27.7785 34.2165 27.7778 33.3332C27.7785 32.45 27.4278 31.6027 26.8026 30.9777C26.1775 30.3525 25.3291 30.0008 24.4441 30H21.111V33.3332C21.111 35.1738 22.6031 36.6665 24.4441 36.6665ZM24.4441 27.7778H33.3335C35.174 27.7778 36.6666 26.2853 36.6666 24.4442C36.6673 23.5608 36.3166 22.7137 35.6915 22.0885C35.0663 21.4635 34.218 21.1118 33.333 21.1108H24.4441C22.6031 21.1108 21.111 22.6035 21.111 24.4442C21.1106 24.8813 21.1965 25.3145 21.3636 25.7187C21.531 26.1228 21.7763 26.4902 22.0858 26.7997C22.3953 27.1092 22.763 27.3548 23.1676 27.5225C23.5721 27.6903 24.006 27.7768 24.4441 27.7773" fill="#ECB22E"/>
<path d="M3.33338 24.4442C3.33294 24.8813 3.41881 25.3145 3.58608 25.7187C3.75334 26.1228 3.99873 26.4902 4.30824 26.7997C4.61774 27.1092 4.98531 27.3548 5.38994 27.5225C5.79456 27.6903 6.22834 27.7768 6.66649 27.7773C7.55143 27.7765 8.39978 27.4248 9.02494 26.7997C9.65011 26.1747 10.0009 25.3273 10.0002 24.4442V21.1108H6.66649C4.82554 21.1108 3.33338 22.6035 3.33338 24.4442ZM12.2222 24.4442V33.3327C12.2222 35.1738 13.7144 36.6665 15.5553 36.6665C16.4403 36.6657 17.2885 36.314 17.9137 35.6888C18.5389 35.0638 18.8897 34.2165 18.889 33.3332V24.4442C18.8894 24.0068 18.8035 23.5737 18.6362 23.1695C18.4689 22.7652 18.2235 22.3978 17.9139 22.0883C17.6044 21.7788 17.2367 21.5332 16.832 21.3655C16.4274 21.1978 15.9935 21.1112 15.5553 21.1108C13.7144 21.1108 12.2222 22.6035 12.2222 24.4442Z" fill="#E01E5A"/>
</svg>
